<?xml version="1.0" encoding="UTF-8" standalone="no"?><svg xmlnsxsvg="http://www.w3.org/2000/svg" xmlns="http://www.w3.org/2000/svg" xmlnsxlink="http://www.w3.org/1999/xlink" version="1.0" width="85px" height="85px" viewBox="0 0 128 128" xml:space="preserve"><g><ellipse cx="64" cy="18.75" rx="6.25" ry="18.75" fill="#ffffff"/><ellipse cx="64" cy="18.75" rx="6.25" ry="18.75" fill="#ffffff" transform="rotate(30 64 64)"/><ellipse cx="64" cy="18.75" rx="6.25" ry="18.75" fill="#e7fefd" transform="rotate(60 64 64)"/><ellipse cx="64" cy="18.75" rx="6.25" ry="18.75" fill="#d0fdfc" transform="rotate(90 64 64)"/><ellipse cx="64" cy="18.75" rx="6.25" ry="18.75" fill="#b8fcfa" transform="rotate(120 64 64)"/><ellipse cx="64" cy="18.75" rx="6.25" ry="18.75" fill="#a1fbf8" transform="rotate(150 64 64)"/><ellipse cx="64" cy="18.75" rx="6.25" ry="18.75" fill="#8af9f6" transform="rotate(180 64 64)"/><ellipse cx="64" cy="18.75" rx="6.25" ry="18.75" fill="#73f8f5" transform="rotate(210 64 64)"/><ellipse cx="64" cy="18.75" rx="6.25" ry="18.75" fill="#5bf7f3" transform="rotate(240 64 64)"/><ellipse cx="64" cy="18.75" rx="6.25" ry="18.75" fill="#44f6f1" transform="rotate(270 64 64)"/><ellipse cx="64" cy="18.75" rx="6.25" ry="18.75" fill="#2cf5f0" transform="rotate(300 64 64)"/><ellipse cx="64" cy="18.75" rx="6.25" ry="18.75" fill="#15f4ee" transform="rotate(330 64 64)"/><animateTransform attributeName="transform" type="rotate" values="0 64 64;30 64 64;60 64 64;90 64 64;120 64 64;150 64 64;180 64 64;210 64 64;240 64 64;270 64 64;300 64 64;330 64 64" calcMode="discrete" dur="1200ms" repeatCount="indefinite" ></animateTransform></g></svg>